<svg width="32" height="32" viewBox="0 0 32 32" fill="none" xmlns="http://www.w3.org/2000/svg">
<g id="Frame">
<path id="Vector" opacity="0.998" d="M3.5 12.7812H9.31244V26.6874H3.5V12.7812Z" fill="url(#paint0_linear_2410_27894)"/>
<path id="Vector_2" opacity="0.998" d="M22.6873 12.7812H28.4997V26.6874H22.6873V12.7812Z" fill="url(#paint1_linear_2410_27894)"/>
<path id="Vector_3" opacity="0.998" d="M13.0936 12.7812H18.9061V26.6874H13.0936V12.7812Z" fill="url(#paint2_linear_2410_27894)"/>
<path id="Vector_4" opacity="0.998" d="M16.0014 1C15.6019 1 14.9608 1.12659 14.1716 1.63329L1.83018 10.1425C0.325452 11.1108 1.05436 13.4764 2.49036 13.4764H29.5125C30.9485 13.4764 31.6774 11.1108 30.1727 10.1425L17.8312 1.63329C17.0421 1.12659 16.401 1 16.0014 1Z" fill="url(#paint3_linear_2410_27894)"/>
<path id="Vector_5" opacity="0.998" d="M2.74998 25.8745H29.2497C30.2192 25.8745 30.9997 26.655 30.9997 27.6245V29.2495C30.9997 30.219 30.2192 30.9995 29.2497 30.9995H2.74998C1.78049 30.9995 1 30.219 1 29.2495V27.6245C1 26.655 1.78049 25.8745 2.74998 25.8745Z" fill="url(#paint4_linear_2410_27894)"/>
<path id="Vector_6" d="M18.8282 6.34842C18.8282 5.97699 18.755 5.60919 18.6129 5.26604C18.4707 4.92288 18.2624 4.61108 17.9998 4.34844C17.7371 4.0858 17.4253 3.87746 17.0822 3.73532C16.739 3.59318 16.3712 3.52002 15.9998 3.52002C15.6284 3.52002 15.2606 3.59318 14.9174 3.73532C14.5742 3.87746 14.2624 4.0858 13.9998 4.34844C13.7372 4.61108 13.5288 4.92288 13.3867 5.26604C13.2445 5.60919 13.1714 5.97699 13.1714 6.34842C13.1714 6.71985 13.2445 7.08764 13.3867 7.4308C13.5288 7.77396 13.7372 8.08576 13.9998 8.3484C14.2624 8.61104 14.5742 8.81938 14.9174 8.96152C15.2606 9.10366 15.6284 9.17682 15.9998 9.17682C16.3712 9.17682 16.739 9.10366 17.0822 8.96152C17.4253 8.81938 17.7371 8.61104 17.9998 8.3484C18.2624 8.08576 18.4707 7.77396 18.6129 7.4308C18.755 7.08764 18.8282 6.71985 18.8282 6.34842Z" fill="url(#paint5_linear_2410_27894)"/>
<path id="Vector_7" d="M2.00049 11.3125V11.5615H2.50048V11.3125H2.00049ZM3.24999 11.3125V11.5615H3.74998V11.3125H3.24999ZM4.50095 11.3125V11.5615H5.00094V11.3125H4.50095ZM5.75045 11.3125V11.5615H6.25044V11.3125H5.75045ZM6.99995 11.3125V11.5615H7.49994V11.3125H6.99995ZM8.25091 11.3125V11.5615H8.7509V11.3125H8.25091ZM9.50041 11.3125V11.5615H10.0004V11.3125H9.50041ZM10.7499 11.3125V11.5615H11.2499V11.3125H10.7499ZM12.0009 11.3125V11.5615H12.5009V11.3125H12.0009ZM13.2504 11.3125V11.5615H13.7504V11.3125H13.2504ZM14.4999 11.3125V11.5615H14.9999V11.3125H14.4999ZM15.7508 11.3125V11.5615H16.2508V11.3125H15.7508ZM17.0003 11.3125V11.5615H17.5003V11.3125H17.0003ZM18.2498 11.3125V11.5615H18.7498V11.3125H18.2498ZM19.5008 11.3125V11.5615H20.0008V11.3125H19.5008ZM20.7503 11.3125V11.5615H21.2503V11.3125H20.7503ZM21.9998 11.3125V11.5615H22.4998V11.3125H21.9998ZM23.2508 11.3125V11.5615H23.7493V11.3125H23.2508ZM24.5003 11.3125V11.5615H25.0003V11.3125H24.5003ZM25.7498 11.3125V11.5615H26.2498V11.3125H25.7498ZM27.0007 11.3125V11.5615H27.4993V11.3125H27.0007ZM28.2497 11.3125V11.5615H28.7497V11.3125H28.2497ZM29.4992 11.3125V11.5615H29.9992V11.3125H29.4992Z" fill="#024292"/>
</g>
<defs>
<linearGradient id="paint0_linear_2410_27894" x1="6.96375" y1="28.5003" x2="6.96375" y2="12.1096" gradientUnits="userSpaceOnUse">
<stop stop-color="#EAF2FF"/>
<stop offset="1" stop-color="#73A9FF"/>
</linearGradient>
<linearGradient id="paint1_linear_2410_27894" x1="26.151" y1="28.5003" x2="26.151" y2="12.1096" gradientUnits="userSpaceOnUse">
<stop stop-color="#EAF2FF"/>
<stop offset="1" stop-color="#73A9FF"/>
</linearGradient>
<linearGradient id="paint2_linear_2410_27894" x1="16.5574" y1="28.5003" x2="16.5574" y2="12.1096" gradientUnits="userSpaceOnUse">
<stop stop-color="#EAF2FF"/>
<stop offset="1" stop-color="#73A9FF"/>
</linearGradient>
<linearGradient id="paint3_linear_2410_27894" x1="16.0018" y1="1.23401" x2="16.0018" y2="12.6755" gradientUnits="userSpaceOnUse">
<stop stop-color="#AACBFF"/>
<stop offset="1" stop-color="#2C5AA2"/>
</linearGradient>
<linearGradient id="paint4_linear_2410_27894" x1="15.9995" y1="25.4367" x2="15.9995" y2="30.9991" gradientUnits="userSpaceOnUse">
<stop stop-color="#6FA5FA"/>
<stop offset="1" stop-color="#0E51A0"/>
</linearGradient>
<linearGradient id="paint5_linear_2410_27894" x1="15.7178" y1="3.66187" x2="15.7178" y2="9.38902" gradientUnits="userSpaceOnUse">
<stop stop-color="#EAF2FF"/>
<stop offset="1" stop-color="#9BBAFF"/>
</linearGradient>
</defs>
</svg>
